<svg xmlns="http://www.w3.org/2000/svg" viewBox="0 0 8351 5669"><defs><style>.cls-1{fill:#525f6d;}.cls-2{fill:#4b5863;}</style></defs><title>geil-dark-highres</title><g id="dark"><rect class="cls-1" width="8351" height="5669"/><rect class="cls-2" x="2142" y="3974" width="164" height="47"/><rect class="cls-2" x="1945" y="3870" width="527" height="47"/><rect class="cls-2" x="3536" y="4018" width="210" height="47"/><rect class="cls-2" x="7444" y="4268" width="742" height="47"/><rect class="cls-2" x="6945" y="4167" width="992" height="47"/><rect class="cls-2" x="7789" y="2636" width="562" height="47"/><rect class="cls-2" x="7531" y="2636" width="165" height="47"/><rect class="cls-2" x="7085" y="2636" width="352" height="47"/><rect class="cls-2" x="3807" y="3152" width="1276" height="47"/><rect class="cls-2" x="2306" y="2378" width="141" height="47"/><rect class="cls-2" x="2541" y="2378" width="93" height="47"/><rect class="cls-2" x="2309" y="2276" width="254" height="47"/><rect class="cls-2" x="4770" y="1352" width="367" height="47"/><rect class="cls-2" x="5223" y="1352" width="227" height="47"/><rect class="cls-2" x="5537" y="1352" width="188" height="47"/><rect class="cls-2" y="780" width="252" height="47"/><rect class="cls-2" x="6240" y="273" width="251" height="47"/><rect class="cls-2" x="6576" y="273" width="158" height="47"/><rect class="cls-2" x="2658" y="100" width="405" height="47"/><rect class="cls-2" x="2477" y="100" width="91" height="47"/><rect class="cls-2" x="2204" y="100" width="182" height="47"/><rect class="cls-2" x="2447" width="297" height="47"/><rect class="cls-2" x="6381" y="180" width="353" height="47"/><rect class="cls-2" x="6295" y="77" width="531" height="47"/><rect class="cls-2" x="335" y="780" width="167" height="47"/><rect class="cls-2" x="4081" y="4120" width="173" height="47"/><rect class="cls-2" x="5351" y="5622" width="203" height="47"/><rect class="cls-2" x="5637" y="5622" width="267" height="47"/><rect class="cls-2" x="5999" y="5622" width="92" height="47"/><rect class="cls-2" x="3595" y="4120" width="401" height="47"/><rect class="cls-2" x="1713" y="3974" width="334" height="47"/><rect class="cls-2" x="320" y="5059" width="149" height="47"/><rect class="cls-2" y="4957" width="469" height="47"/></g></svg>